<mxfile host="app.diagrams.net" modified="2021-10-16T09:13:14.984Z" agent="5.0 (Windows NT 10.0; Win64; x64) AppleWebKit/537.36 (KHTML, like Gecko) Chrome/94.0.4606.81 Safari/537.36" etag="_9mib3ztQhB0etPE_RqY" version="14.7.7" type="github" pages="3">
  <diagram id="GJed8NguXnpASxQYznV8" name="comb">
    <mxGraphModel dx="920" dy="509" grid="1" gridSize="10" guides="1" tooltips="1" connect="1" arrows="1" fold="1" page="1" pageScale="1" pageWidth="827" pageHeight="1169" math="0" shadow="0">
      <root>
        <mxCell id="0" />
        <mxCell id="1" parent="0" />
        <mxCell id="dT0JUiIWx1zjddslCzg3-5" style="edgeStyle=none;orthogonalLoop=1;jettySize=auto;html=1;exitX=0.5;exitY=1;exitDx=0;exitDy=0;entryX=0.5;entryY=0;entryDx=0;entryDy=0;endArrow=classic;endFill=1;startSize=6;endSize=6;sourcePerimeterSpacing=8;targetPerimeterSpacing=8;shadow=0;rounded=0;" parent="1" source="dT0JUiIWx1zjddslCzg3-1" target="dT0JUiIWx1zjddslCzg3-2" edge="1">
          <mxGeometry relative="1" as="geometry" />
        </mxCell>
        <mxCell id="CiiwCFmWSDI6A2as7kmE-42" style="edgeStyle=none;rounded=0;orthogonalLoop=1;jettySize=auto;html=1;exitX=1;exitY=0.5;exitDx=0;exitDy=0;shadow=0;startArrow=none;startFill=0;endArrow=none;endFill=0;startSize=6;endSize=6;sourcePerimeterSpacing=8;targetPerimeterSpacing=8;dashed=1;" parent="1" source="dT0JUiIWx1zjddslCzg3-1" edge="1">
          <mxGeometry relative="1" as="geometry">
            <mxPoint x="540" y="70.33333333333337" as="targetPoint" />
          </mxGeometry>
        </mxCell>
        <mxCell id="dT0JUiIWx1zjddslCzg3-1" value="Начало" style="rounded=1;whiteSpace=wrap;html=1;fontSize=12;glass=0;strokeWidth=1;shadow=0;arcSize=50;" parent="1" vertex="1">
          <mxGeometry x="350" y="40" width="139" height="60" as="geometry" />
        </mxCell>
        <mxCell id="CiiwCFmWSDI6A2as7kmE-2" style="edgeStyle=none;rounded=0;orthogonalLoop=1;jettySize=auto;html=1;exitX=0.5;exitY=1;exitDx=0;exitDy=0;entryX=0.5;entryY=0;entryDx=0;entryDy=0;shadow=0;endFill=1;startSize=6;endSize=6;sourcePerimeterSpacing=8;targetPerimeterSpacing=8;" parent="1" source="dT0JUiIWx1zjddslCzg3-2" target="CiiwCFmWSDI6A2as7kmE-1" edge="1">
          <mxGeometry relative="1" as="geometry" />
        </mxCell>
        <mxCell id="dT0JUiIWx1zjddslCzg3-2" value="n = length(a)&lt;br&gt;factor = 1.247" style="rounded=0;whiteSpace=wrap;html=1;hachureGap=4;pointerEvents=0;" parent="1" vertex="1">
          <mxGeometry x="349" y="130" width="141" height="60" as="geometry" />
        </mxCell>
        <mxCell id="CiiwCFmWSDI6A2as7kmE-5" style="edgeStyle=none;rounded=0;orthogonalLoop=1;jettySize=auto;html=1;exitX=0.5;exitY=1;exitDx=0;exitDy=0;entryX=0.5;entryY=0;entryDx=0;entryDy=0;entryPerimeter=0;shadow=0;endFill=1;startSize=6;endSize=6;sourcePerimeterSpacing=8;targetPerimeterSpacing=8;" parent="1" source="CiiwCFmWSDI6A2as7kmE-1" target="CiiwCFmWSDI6A2as7kmE-4" edge="1">
          <mxGeometry relative="1" as="geometry" />
        </mxCell>
        <mxCell id="CiiwCFmWSDI6A2as7kmE-1" value="swaps = 1&lt;br&gt;step = n" style="rounded=0;whiteSpace=wrap;html=1;hachureGap=4;pointerEvents=0;" parent="1" vertex="1">
          <mxGeometry x="349" y="220" width="141" height="60" as="geometry" />
        </mxCell>
        <mxCell id="CiiwCFmWSDI6A2as7kmE-9" style="edgeStyle=none;rounded=0;orthogonalLoop=1;jettySize=auto;html=1;exitX=0.5;exitY=1;exitDx=0;exitDy=0;exitPerimeter=0;entryX=0.5;entryY=0;entryDx=0;entryDy=0;shadow=0;endFill=1;startSize=6;endSize=6;sourcePerimeterSpacing=8;targetPerimeterSpacing=8;" parent="1" source="CiiwCFmWSDI6A2as7kmE-4" target="CiiwCFmWSDI6A2as7kmE-8" edge="1">
          <mxGeometry relative="1" as="geometry" />
        </mxCell>
        <mxCell id="CiiwCFmWSDI6A2as7kmE-4" value="Цикл main,&lt;br&gt;step &amp;lt;= 1 и swaps = 0" style="strokeWidth=1;html=1;shape=stencil(rZVNb4MwDIZ/Ta5VIFpXjlPWnapeetg5pe6ICgkKWbv9+6W4aHwMxrxKHPBreB9sbIUJWWWqBBZzowpg4pnF8cbaMggbXWgfwnCbYWLJMbxgmKwwVFUJqUftrJxW+xwwU3lnT3DRB39z0CYDh65izfhTeOZ6CZlaY4KJtqbqZFr5YKa0Ce/yDzTjiwfEfN5ijMpAKMCD66jf5W1RYPELmRTNI+0IpG5FDfc30uvfSRGNtKZ0r8+KZsK2hLr4gsc9XLKayduReAm1OlIvm60jVDfCEzIoYwso5F6lpzdn383hx68s1XW5B4kmXdgztIau16upBjQOuTYth8d/O/QaeAeLJcGC39mBUgblb6S5rWBiaIM+mIhaHRkjIY/WwcR8HXWe4zkyNroDg1rFc60WvgA=);whiteSpace=wrap;" parent="1" vertex="1">
          <mxGeometry x="348" y="310" width="142" height="60" as="geometry" />
        </mxCell>
        <mxCell id="CiiwCFmWSDI6A2as7kmE-41" style="edgeStyle=none;rounded=0;orthogonalLoop=1;jettySize=auto;html=1;exitX=0.5;exitY=0;exitDx=0;exitDy=0;exitPerimeter=0;entryX=0.5;entryY=0;entryDx=0;entryDy=0;shadow=0;startArrow=none;startFill=0;endArrow=classic;endFill=1;startSize=6;endSize=6;sourcePerimeterSpacing=8;targetPerimeterSpacing=8;" parent="1" source="CiiwCFmWSDI6A2as7kmE-6" target="CiiwCFmWSDI6A2as7kmE-40" edge="1">
          <mxGeometry relative="1" as="geometry" />
        </mxCell>
        <mxCell id="CiiwCFmWSDI6A2as7kmE-6" value="Цикл main" style="strokeWidth=1;html=1;shape=stencil(rZVNb4MwDIZ/Ta5VIFpXjlPWnapeetg5pe6ICgkKWbv9+6W4aHwMxrxKHPBreB9sbIUJWWWqBBZzowpg4pnF8cbaMggbXWgfwnCbYWLJMbxgmKwwVFUJqUftrJxW+xwwU3lnT3DRB39z0CYDh65izfhTeOZ6CZlaY4KJtqbqZFr5YKa0Ce/yDzTjiwfEfN5ijMpAKMCD66jf5W1RYPELmRTNI+0IpG5FDfc30uvfSRGNtKZ0r8+KZsK2hLr4gsc9XLKayduReAm1OlIvm60jVDfCEzIoYwso5F6lpzdn383hx68s1XW5B4kmXdgztIau16upBjQOuTYth8d/O/QaeAeLJcGC39mBUgblb6S5rWBiaIM+mIhaHRkjIY/WwcR8HXWe4zkyNroDg1rFc60WvgA=);whiteSpace=wrap;rotation=0;direction=west;" parent="1" vertex="1">
          <mxGeometry x="348.25" y="1730" width="142.5" height="60" as="geometry" />
        </mxCell>
        <mxCell id="CiiwCFmWSDI6A2as7kmE-11" style="edgeStyle=none;rounded=0;orthogonalLoop=1;jettySize=auto;html=1;exitX=0.5;exitY=1;exitDx=0;exitDy=0;entryX=0.5;entryY=0;entryDx=0;entryDy=0;shadow=0;endFill=1;startSize=6;endSize=6;sourcePerimeterSpacing=8;targetPerimeterSpacing=8;" parent="1" source="CiiwCFmWSDI6A2as7kmE-8" target="CiiwCFmWSDI6A2as7kmE-10" edge="1">
          <mxGeometry relative="1" as="geometry" />
        </mxCell>
        <mxCell id="CiiwCFmWSDI6A2as7kmE-8" value="step = 0" style="rounded=0;whiteSpace=wrap;html=1;hachureGap=4;pointerEvents=0;" parent="1" vertex="1">
          <mxGeometry x="348.5" y="400" width="142" height="60" as="geometry" />
        </mxCell>
        <mxCell id="CiiwCFmWSDI6A2as7kmE-16" style="edgeStyle=none;rounded=0;orthogonalLoop=1;jettySize=auto;html=1;exitX=0.5;exitY=1;exitDx=0;exitDy=0;entryX=0.5;entryY=0;entryDx=0;entryDy=0;shadow=0;endFill=1;startSize=6;endSize=6;sourcePerimeterSpacing=8;targetPerimeterSpacing=8;" parent="1" source="CiiwCFmWSDI6A2as7kmE-10" target="CiiwCFmWSDI6A2as7kmE-15" edge="1">
          <mxGeometry relative="1" as="geometry" />
        </mxCell>
        <mxCell id="CiiwCFmWSDI6A2as7kmE-10" value="step = round(step / factor)" style="rounded=0;whiteSpace=wrap;html=1;hachureGap=4;pointerEvents=0;" parent="1" vertex="1">
          <mxGeometry x="348.5" y="490" width="142" height="60" as="geometry" />
        </mxCell>
        <mxCell id="CiiwCFmWSDI6A2as7kmE-12" value="step = 1" style="rounded=0;whiteSpace=wrap;html=1;hachureGap=4;pointerEvents=0;" parent="1" vertex="1">
          <mxGeometry x="510" y="670" width="142" height="60" as="geometry" />
        </mxCell>
        <mxCell id="CiiwCFmWSDI6A2as7kmE-17" style="edgeStyle=none;rounded=0;orthogonalLoop=1;jettySize=auto;html=1;exitX=1;exitY=0.5;exitDx=0;exitDy=0;entryX=0.5;entryY=0;entryDx=0;entryDy=0;shadow=0;endFill=1;startSize=6;endSize=6;sourcePerimeterSpacing=8;targetPerimeterSpacing=8;" parent="1" source="CiiwCFmWSDI6A2as7kmE-15" target="CiiwCFmWSDI6A2as7kmE-12" edge="1">
          <mxGeometry relative="1" as="geometry">
            <Array as="points">
              <mxPoint x="580" y="619" />
            </Array>
          </mxGeometry>
        </mxCell>
        <mxCell id="CiiwCFmWSDI6A2as7kmE-18" style="edgeStyle=none;rounded=0;orthogonalLoop=1;jettySize=auto;html=1;exitX=0;exitY=0.5;exitDx=0;exitDy=0;entryX=0.5;entryY=1;entryDx=0;entryDy=0;shadow=0;endFill=0;startSize=6;endSize=6;sourcePerimeterSpacing=8;targetPerimeterSpacing=8;endArrow=none;" parent="1" source="CiiwCFmWSDI6A2as7kmE-15" target="CiiwCFmWSDI6A2as7kmE-12" edge="1">
          <mxGeometry relative="1" as="geometry">
            <Array as="points">
              <mxPoint x="260" y="620" />
              <mxPoint x="260" y="770" />
              <mxPoint x="581" y="770" />
            </Array>
          </mxGeometry>
        </mxCell>
        <mxCell id="CiiwCFmWSDI6A2as7kmE-15" value="step &amp;lt; 1 ?" style="rhombus;whiteSpace=wrap;html=1;strokeWidth=1;" parent="1" vertex="1">
          <mxGeometry x="346.75" y="584" width="145.5" height="70" as="geometry" />
        </mxCell>
        <mxCell id="CiiwCFmWSDI6A2as7kmE-24" style="edgeStyle=none;rounded=0;orthogonalLoop=1;jettySize=auto;html=1;exitX=0.5;exitY=1;exitDx=0;exitDy=0;exitPerimeter=0;entryX=0.5;entryY=0;entryDx=0;entryDy=0;shadow=0;startArrow=none;startFill=0;endArrow=classic;endFill=1;startSize=6;endSize=6;sourcePerimeterSpacing=8;targetPerimeterSpacing=8;" parent="1" source="CiiwCFmWSDI6A2as7kmE-19" target="CiiwCFmWSDI6A2as7kmE-23" edge="1">
          <mxGeometry relative="1" as="geometry" />
        </mxCell>
        <mxCell id="CiiwCFmWSDI6A2as7kmE-19" value="Цикл i,&amp;nbsp;&lt;br&gt;i == (n - step)" style="strokeWidth=1;html=1;shape=stencil(rZVNb4MwDIZ/Ta5VIFpXjlPWnapeetg5pe6ICgkKWbv9+6W4aHwMxrxKHPBreB9sbIUJWWWqBBZzowpg4pnF8cbaMggbXWgfwnCbYWLJMbxgmKwwVFUJqUftrJxW+xwwU3lnT3DRB39z0CYDh65izfhTeOZ6CZlaY4KJtqbqZFr5YKa0Ce/yDzTjiwfEfN5ijMpAKMCD66jf5W1RYPELmRTNI+0IpG5FDfc30uvfSRGNtKZ0r8+KZsK2hLr4gsc9XLKayduReAm1OlIvm60jVDfCEzIoYwso5F6lpzdn383hx68s1XW5B4kmXdgztIau16upBjQOuTYth8d/O/QaeAeLJcGC39mBUgblb6S5rWBiaIM+mIhaHRkjIY/WwcR8HXWe4zkyNroDg1rFc60WvgA=);whiteSpace=wrap;" parent="1" vertex="1">
          <mxGeometry x="348.5" y="1100" width="142" height="60" as="geometry" />
        </mxCell>
        <mxCell id="V9FuZokp67ftRF_nd6OF-3" style="edgeStyle=orthogonalEdgeStyle;rounded=0;orthogonalLoop=1;jettySize=auto;html=1;exitX=0.5;exitY=1;exitDx=0;exitDy=0;entryX=0.5;entryY=0;entryDx=0;entryDy=0;startArrow=none;startFill=0;endArrow=classic;endFill=1;" edge="1" parent="1" source="CiiwCFmWSDI6A2as7kmE-21" target="V9FuZokp67ftRF_nd6OF-1">
          <mxGeometry relative="1" as="geometry" />
        </mxCell>
        <mxCell id="CiiwCFmWSDI6A2as7kmE-21" value="i = 0" style="rounded=0;whiteSpace=wrap;html=1;hachureGap=4;pointerEvents=0;" parent="1" vertex="1">
          <mxGeometry x="348.5" y="820" width="142" height="60" as="geometry" />
        </mxCell>
        <mxCell id="CiiwCFmWSDI6A2as7kmE-22" value="" style="endArrow=classic;html=1;shadow=0;startSize=6;endSize=6;sourcePerimeterSpacing=8;targetPerimeterSpacing=8;entryX=0.5;entryY=0;entryDx=0;entryDy=0;" parent="1" target="CiiwCFmWSDI6A2as7kmE-21" edge="1">
          <mxGeometry width="50" height="50" relative="1" as="geometry">
            <mxPoint x="420" y="770" as="sourcePoint" />
            <mxPoint x="460" y="790" as="targetPoint" />
          </mxGeometry>
        </mxCell>
        <mxCell id="CiiwCFmWSDI6A2as7kmE-31" style="edgeStyle=none;rounded=0;orthogonalLoop=1;jettySize=auto;html=1;exitX=0.5;exitY=1;exitDx=0;exitDy=0;entryX=0.5;entryY=0;entryDx=0;entryDy=0;shadow=0;startArrow=none;startFill=0;endArrow=classic;endFill=1;startSize=6;endSize=6;sourcePerimeterSpacing=8;targetPerimeterSpacing=8;" parent="1" source="CiiwCFmWSDI6A2as7kmE-23" target="CiiwCFmWSDI6A2as7kmE-29" edge="1">
          <mxGeometry relative="1" as="geometry" />
        </mxCell>
        <mxCell id="CiiwCFmWSDI6A2as7kmE-23" value="j = i + step" style="rounded=0;whiteSpace=wrap;html=1;hachureGap=4;pointerEvents=0;" parent="1" vertex="1">
          <mxGeometry x="348.5" y="1200" width="142" height="60" as="geometry" />
        </mxCell>
        <mxCell id="CiiwCFmWSDI6A2as7kmE-25" value="Да" style="text;html=1;strokeColor=none;fillColor=none;align=center;verticalAlign=middle;whiteSpace=wrap;rounded=0;hachureGap=4;pointerEvents=0;" parent="1" vertex="1">
          <mxGeometry x="520" y="600" width="40" height="20" as="geometry" />
        </mxCell>
        <mxCell id="CiiwCFmWSDI6A2as7kmE-26" value="a[i], a[j] = a[j], a[i]&lt;br&gt;swaps = 1" style="rounded=0;whiteSpace=wrap;html=1;hachureGap=4;pointerEvents=0;" parent="1" vertex="1">
          <mxGeometry x="510" y="1386" width="142" height="60" as="geometry" />
        </mxCell>
        <mxCell id="CiiwCFmWSDI6A2as7kmE-27" style="edgeStyle=none;rounded=0;orthogonalLoop=1;jettySize=auto;html=1;exitX=1;exitY=0.5;exitDx=0;exitDy=0;entryX=0.5;entryY=0;entryDx=0;entryDy=0;shadow=0;endFill=1;startSize=6;endSize=6;sourcePerimeterSpacing=8;targetPerimeterSpacing=8;" parent="1" source="CiiwCFmWSDI6A2as7kmE-29" target="CiiwCFmWSDI6A2as7kmE-26" edge="1">
          <mxGeometry relative="1" as="geometry">
            <Array as="points">
              <mxPoint x="580" y="1335" />
            </Array>
          </mxGeometry>
        </mxCell>
        <mxCell id="CiiwCFmWSDI6A2as7kmE-28" style="edgeStyle=none;rounded=0;orthogonalLoop=1;jettySize=auto;html=1;exitX=0;exitY=0.5;exitDx=0;exitDy=0;entryX=0.5;entryY=1;entryDx=0;entryDy=0;shadow=0;endFill=0;startSize=6;endSize=6;sourcePerimeterSpacing=8;targetPerimeterSpacing=8;endArrow=none;" parent="1" source="CiiwCFmWSDI6A2as7kmE-29" target="CiiwCFmWSDI6A2as7kmE-26" edge="1">
          <mxGeometry relative="1" as="geometry">
            <Array as="points">
              <mxPoint x="260" y="1336" />
              <mxPoint x="260" y="1490" />
              <mxPoint x="581" y="1490" />
            </Array>
          </mxGeometry>
        </mxCell>
        <mxCell id="CiiwCFmWSDI6A2as7kmE-29" value="a[i] &amp;gt; a[j] ?" style="rhombus;whiteSpace=wrap;html=1;strokeWidth=1;" parent="1" vertex="1">
          <mxGeometry x="346.75" y="1300" width="145.5" height="70" as="geometry" />
        </mxCell>
        <mxCell id="CiiwCFmWSDI6A2as7kmE-30" value="Да" style="text;html=1;strokeColor=none;fillColor=none;align=center;verticalAlign=middle;whiteSpace=wrap;rounded=0;hachureGap=4;pointerEvents=0;" parent="1" vertex="1">
          <mxGeometry x="520" y="1316" width="40" height="20" as="geometry" />
        </mxCell>
        <mxCell id="CiiwCFmWSDI6A2as7kmE-38" style="edgeStyle=none;rounded=0;orthogonalLoop=1;jettySize=auto;html=1;exitX=0.5;exitY=0;exitDx=0;exitDy=0;exitPerimeter=0;entryX=0.5;entryY=1;entryDx=0;entryDy=0;entryPerimeter=0;shadow=0;startArrow=none;startFill=0;endArrow=classic;endFill=1;startSize=6;endSize=6;sourcePerimeterSpacing=8;targetPerimeterSpacing=8;" parent="1" source="CiiwCFmWSDI6A2as7kmE-32" target="CiiwCFmWSDI6A2as7kmE-6" edge="1">
          <mxGeometry relative="1" as="geometry" />
        </mxCell>
        <mxCell id="CiiwCFmWSDI6A2as7kmE-32" value="Цикл i" style="strokeWidth=1;html=1;shape=stencil(rZVNb4MwDIZ/Ta5VIFpXjlPWnapeetg5pe6ICgkKWbv9+6W4aHwMxrxKHPBreB9sbIUJWWWqBBZzowpg4pnF8cbaMggbXWgfwnCbYWLJMbxgmKwwVFUJqUftrJxW+xwwU3lnT3DRB39z0CYDh65izfhTeOZ6CZlaY4KJtqbqZFr5YKa0Ce/yDzTjiwfEfN5ijMpAKMCD66jf5W1RYPELmRTNI+0IpG5FDfc30uvfSRGNtKZ0r8+KZsK2hLr4gsc9XLKayduReAm1OlIvm60jVDfCEzIoYwso5F6lpzdn383hx68s1XW5B4kmXdgztIau16upBjQOuTYth8d/O/QaeAeLJcGC39mBUgblb6S5rWBiaIM+mIhaHRkjIY/WwcR8HXWe4zkyNroDg1rFc60WvgA=);whiteSpace=wrap;rotation=0;direction=west;" parent="1" vertex="1">
          <mxGeometry x="348" y="1630" width="142.5" height="60" as="geometry" />
        </mxCell>
        <mxCell id="CiiwCFmWSDI6A2as7kmE-37" style="edgeStyle=none;rounded=0;orthogonalLoop=1;jettySize=auto;html=1;exitX=0.5;exitY=1;exitDx=0;exitDy=0;entryX=0.5;entryY=1;entryDx=0;entryDy=0;entryPerimeter=0;shadow=0;startArrow=none;startFill=0;endArrow=classic;endFill=1;startSize=6;endSize=6;sourcePerimeterSpacing=8;targetPerimeterSpacing=8;" parent="1" source="CiiwCFmWSDI6A2as7kmE-33" target="CiiwCFmWSDI6A2as7kmE-32" edge="1">
          <mxGeometry relative="1" as="geometry" />
        </mxCell>
        <mxCell id="CiiwCFmWSDI6A2as7kmE-39" style="edgeStyle=none;rounded=0;orthogonalLoop=1;jettySize=auto;html=1;exitX=0.5;exitY=0;exitDx=0;exitDy=0;shadow=0;startArrow=classic;startFill=1;endArrow=none;endFill=0;startSize=6;endSize=6;sourcePerimeterSpacing=8;targetPerimeterSpacing=8;" parent="1" source="CiiwCFmWSDI6A2as7kmE-33" edge="1">
          <mxGeometry relative="1" as="geometry">
            <mxPoint x="420" y="1490" as="targetPoint" />
          </mxGeometry>
        </mxCell>
        <mxCell id="CiiwCFmWSDI6A2as7kmE-33" value="Инкрементировать i" style="rounded=0;whiteSpace=wrap;html=1;hachureGap=4;pointerEvents=0;" parent="1" vertex="1">
          <mxGeometry x="348.5" y="1530" width="142" height="60" as="geometry" />
        </mxCell>
        <mxCell id="CiiwCFmWSDI6A2as7kmE-40" value="Конец" style="rounded=1;whiteSpace=wrap;html=1;fontSize=12;glass=0;strokeWidth=1;shadow=0;arcSize=50;" parent="1" vertex="1">
          <mxGeometry x="350" y="1820" width="139" height="60" as="geometry" />
        </mxCell>
        <mxCell id="CiiwCFmWSDI6A2as7kmE-43" value="" style="shape=partialRectangle;whiteSpace=wrap;html=1;bottom=1;right=1;left=1;top=0;fillColor=none;routingCenterX=-0.5;rotation=90;" parent="1" vertex="1">
          <mxGeometry x="520" y="60" width="65" height="20" as="geometry" />
        </mxCell>
        <mxCell id="CiiwCFmWSDI6A2as7kmE-44" value="def comb_sort(a),&lt;br&gt;где a - массив, который будет отсортирован" style="text;html=1;strokeColor=none;fillColor=none;align=center;verticalAlign=middle;whiteSpace=wrap;rounded=0;hachureGap=4;pointerEvents=0;" parent="1" vertex="1">
          <mxGeometry x="540" y="60" width="160" height="20" as="geometry" />
        </mxCell>
        <mxCell id="V9FuZokp67ftRF_nd6OF-1" value="A" style="ellipse;whiteSpace=wrap;html=1;" vertex="1" parent="1">
          <mxGeometry x="399.5" y="920" width="40" height="40" as="geometry" />
        </mxCell>
        <mxCell id="V9FuZokp67ftRF_nd6OF-5" style="edgeStyle=orthogonalEdgeStyle;rounded=0;orthogonalLoop=1;jettySize=auto;html=1;exitX=0.5;exitY=1;exitDx=0;exitDy=0;entryX=0.5;entryY=0;entryDx=0;entryDy=0;entryPerimeter=0;startArrow=none;startFill=0;endArrow=classic;endFill=1;" edge="1" parent="1" source="V9FuZokp67ftRF_nd6OF-4" target="CiiwCFmWSDI6A2as7kmE-19">
          <mxGeometry relative="1" as="geometry" />
        </mxCell>
        <mxCell id="V9FuZokp67ftRF_nd6OF-4" value="A" style="ellipse;whiteSpace=wrap;html=1;" vertex="1" parent="1">
          <mxGeometry x="399.25" y="1030" width="40" height="40" as="geometry" />
        </mxCell>
      </root>
    </mxGraphModel>
  </diagram>
  <diagram id="eXDLAdZAldfUCkV0TUYc" name="gnome">
    <mxGraphModel dx="782" dy="433" grid="1" gridSize="10" guides="1" tooltips="1" connect="1" arrows="1" fold="1" page="1" pageScale="1" pageWidth="827" pageHeight="1169" math="0" shadow="0">
      <root>
        <mxCell id="10pmenBXO5PQXSj6-2It-0" />
        <mxCell id="10pmenBXO5PQXSj6-2It-1" parent="10pmenBXO5PQXSj6-2It-0" />
        <mxCell id="EDXOAvWyy75yicdyVwj9-0" style="edgeStyle=none;orthogonalLoop=1;jettySize=auto;html=1;exitX=0.5;exitY=1;exitDx=0;exitDy=0;entryX=0.5;entryY=0;entryDx=0;entryDy=0;endArrow=classic;endFill=1;startSize=6;endSize=6;sourcePerimeterSpacing=8;targetPerimeterSpacing=8;shadow=0;rounded=0;" edge="1" parent="10pmenBXO5PQXSj6-2It-1" source="EDXOAvWyy75yicdyVwj9-2" target="EDXOAvWyy75yicdyVwj9-4">
          <mxGeometry relative="1" as="geometry" />
        </mxCell>
        <mxCell id="EDXOAvWyy75yicdyVwj9-1" style="edgeStyle=none;rounded=0;orthogonalLoop=1;jettySize=auto;html=1;exitX=1;exitY=0.5;exitDx=0;exitDy=0;shadow=0;startArrow=none;startFill=0;endArrow=none;endFill=0;startSize=6;endSize=6;sourcePerimeterSpacing=8;targetPerimeterSpacing=8;dashed=1;" edge="1" parent="10pmenBXO5PQXSj6-2It-1" source="EDXOAvWyy75yicdyVwj9-2">
          <mxGeometry relative="1" as="geometry">
            <mxPoint x="540" y="70.33333333333348" as="targetPoint" />
          </mxGeometry>
        </mxCell>
        <mxCell id="EDXOAvWyy75yicdyVwj9-2" value="Начало" style="rounded=1;whiteSpace=wrap;html=1;fontSize=12;glass=0;strokeWidth=1;shadow=0;arcSize=50;" vertex="1" parent="10pmenBXO5PQXSj6-2It-1">
          <mxGeometry x="350" y="40" width="139" height="60" as="geometry" />
        </mxCell>
        <mxCell id="EDXOAvWyy75yicdyVwj9-3" style="edgeStyle=none;rounded=0;orthogonalLoop=1;jettySize=auto;html=1;exitX=0.5;exitY=1;exitDx=0;exitDy=0;entryX=0.5;entryY=0;entryDx=0;entryDy=0;shadow=0;endFill=1;startSize=6;endSize=6;sourcePerimeterSpacing=8;targetPerimeterSpacing=8;entryPerimeter=0;" edge="1" parent="10pmenBXO5PQXSj6-2It-1" source="EDXOAvWyy75yicdyVwj9-4" target="EDXOAvWyy75yicdyVwj9-8">
          <mxGeometry relative="1" as="geometry">
            <mxPoint x="419.4999999999998" y="220" as="targetPoint" />
          </mxGeometry>
        </mxCell>
        <mxCell id="EDXOAvWyy75yicdyVwj9-4" value="n = length(a)&lt;br&gt;i = 1&lt;br&gt;j = 2" style="rounded=0;whiteSpace=wrap;html=1;hachureGap=4;pointerEvents=0;" vertex="1" parent="10pmenBXO5PQXSj6-2It-1">
          <mxGeometry x="349" y="130" width="141" height="60" as="geometry" />
        </mxCell>
        <mxCell id="rW0uK0-M8Udy8XZ6pbn2-6" style="edgeStyle=orthogonalEdgeStyle;rounded=0;orthogonalLoop=1;jettySize=auto;html=1;exitX=0.5;exitY=1;exitDx=0;exitDy=0;exitPerimeter=0;entryX=0.5;entryY=0;entryDx=0;entryDy=0;" edge="1" parent="10pmenBXO5PQXSj6-2It-1" source="EDXOAvWyy75yicdyVwj9-8" target="rW0uK0-M8Udy8XZ6pbn2-3">
          <mxGeometry relative="1" as="geometry" />
        </mxCell>
        <mxCell id="EDXOAvWyy75yicdyVwj9-8" value="Цикл main,&lt;br&gt;i &amp;gt;= n" style="strokeWidth=1;html=1;shape=stencil(rZVNb4MwDIZ/Ta5VIFpXjlPWnapeetg5pe6ICgkKWbv9+6W4aHwMxrxKHPBreB9sbIUJWWWqBBZzowpg4pnF8cbaMggbXWgfwnCbYWLJMbxgmKwwVFUJqUftrJxW+xwwU3lnT3DRB39z0CYDh65izfhTeOZ6CZlaY4KJtqbqZFr5YKa0Ce/yDzTjiwfEfN5ijMpAKMCD66jf5W1RYPELmRTNI+0IpG5FDfc30uvfSRGNtKZ0r8+KZsK2hLr4gsc9XLKayduReAm1OlIvm60jVDfCEzIoYwso5F6lpzdn383hx68s1XW5B4kmXdgztIau16upBjQOuTYth8d/O/QaeAeLJcGC39mBUgblb6S5rWBiaIM+mIhaHRkjIY/WwcR8HXWe4zkyNroDg1rFc60WvgA=);whiteSpace=wrap;" vertex="1" parent="10pmenBXO5PQXSj6-2It-1">
          <mxGeometry x="348.5" y="230" width="142" height="60" as="geometry" />
        </mxCell>
        <mxCell id="EDXOAvWyy75yicdyVwj9-12" value="" style="shape=partialRectangle;whiteSpace=wrap;html=1;bottom=1;right=1;left=1;top=0;fillColor=none;routingCenterX=-0.5;rotation=90;" vertex="1" parent="10pmenBXO5PQXSj6-2It-1">
          <mxGeometry x="520" y="60" width="65" height="20" as="geometry" />
        </mxCell>
        <mxCell id="EDXOAvWyy75yicdyVwj9-13" value="def gnome_sort(a),&lt;br&gt;где a - массив, который будет отсортирован" style="text;html=1;strokeColor=none;fillColor=none;align=center;verticalAlign=middle;whiteSpace=wrap;rounded=0;hachureGap=4;pointerEvents=0;" vertex="1" parent="10pmenBXO5PQXSj6-2It-1">
          <mxGeometry x="540" y="60" width="160" height="20" as="geometry" />
        </mxCell>
        <mxCell id="Q9X1snmyqKq7CJOndbqU-1" style="edgeStyle=orthogonalEdgeStyle;rounded=0;orthogonalLoop=1;jettySize=auto;html=1;exitX=0.5;exitY=1;exitDx=0;exitDy=0;endArrow=none;endFill=0;" edge="1" parent="10pmenBXO5PQXSj6-2It-1" source="rW0uK0-M8Udy8XZ6pbn2-0">
          <mxGeometry relative="1" as="geometry">
            <mxPoint x="260" y="690" as="targetPoint" />
            <Array as="points">
              <mxPoint x="581" y="750" />
              <mxPoint x="260" y="750" />
            </Array>
          </mxGeometry>
        </mxCell>
        <mxCell id="rW0uK0-M8Udy8XZ6pbn2-0" value="i, j = j, j + 1" style="rounded=0;whiteSpace=wrap;html=1;hachureGap=4;pointerEvents=0;" vertex="1" parent="10pmenBXO5PQXSj6-2It-1">
          <mxGeometry x="510" y="416" width="142" height="60" as="geometry" />
        </mxCell>
        <mxCell id="rW0uK0-M8Udy8XZ6pbn2-1" style="edgeStyle=none;rounded=0;orthogonalLoop=1;jettySize=auto;html=1;exitX=1;exitY=0.5;exitDx=0;exitDy=0;entryX=0.5;entryY=0;entryDx=0;entryDy=0;shadow=0;endFill=1;startSize=6;endSize=6;sourcePerimeterSpacing=8;targetPerimeterSpacing=8;" edge="1" parent="10pmenBXO5PQXSj6-2It-1" source="rW0uK0-M8Udy8XZ6pbn2-3" target="rW0uK0-M8Udy8XZ6pbn2-0">
          <mxGeometry relative="1" as="geometry">
            <Array as="points">
              <mxPoint x="580" y="365" />
            </Array>
          </mxGeometry>
        </mxCell>
        <mxCell id="upVE6FHKJJWetQOLGkUF-1" style="edgeStyle=orthogonalEdgeStyle;rounded=0;orthogonalLoop=1;jettySize=auto;html=1;exitX=0;exitY=0.5;exitDx=0;exitDy=0;entryX=0.5;entryY=0;entryDx=0;entryDy=0;" edge="1" parent="10pmenBXO5PQXSj6-2It-1" source="rW0uK0-M8Udy8XZ6pbn2-3" target="upVE6FHKJJWetQOLGkUF-0">
          <mxGeometry relative="1" as="geometry" />
        </mxCell>
        <mxCell id="rW0uK0-M8Udy8XZ6pbn2-3" value="a[i - 1] &amp;lt; a[i] ?" style="rhombus;whiteSpace=wrap;html=1;strokeWidth=1;" vertex="1" parent="10pmenBXO5PQXSj6-2It-1">
          <mxGeometry x="346.75" y="330" width="145.5" height="70" as="geometry" />
        </mxCell>
        <mxCell id="rW0uK0-M8Udy8XZ6pbn2-5" value="Да" style="text;html=1;strokeColor=none;fillColor=none;align=center;verticalAlign=middle;whiteSpace=wrap;rounded=0;hachureGap=4;pointerEvents=0;" vertex="1" parent="10pmenBXO5PQXSj6-2It-1">
          <mxGeometry x="520" y="346" width="40" height="20" as="geometry" />
        </mxCell>
        <mxCell id="upVE6FHKJJWetQOLGkUF-7" style="edgeStyle=orthogonalEdgeStyle;rounded=0;orthogonalLoop=1;jettySize=auto;html=1;exitX=0.5;exitY=1;exitDx=0;exitDy=0;entryX=0.5;entryY=0;entryDx=0;entryDy=0;" edge="1" parent="10pmenBXO5PQXSj6-2It-1" source="upVE6FHKJJWetQOLGkUF-0" target="upVE6FHKJJWetQOLGkUF-5">
          <mxGeometry relative="1" as="geometry" />
        </mxCell>
        <mxCell id="upVE6FHKJJWetQOLGkUF-0" value="a[i - 1], a[i] = a[i], a[i - 1]&lt;br&gt;Декрементировать i" style="rounded=0;whiteSpace=wrap;html=1;hachureGap=4;pointerEvents=0;" vertex="1" parent="10pmenBXO5PQXSj6-2It-1">
          <mxGeometry x="190" y="416" width="142" height="60" as="geometry" />
        </mxCell>
        <mxCell id="upVE6FHKJJWetQOLGkUF-3" value="i, j = j, j + 1" style="rounded=0;whiteSpace=wrap;html=1;hachureGap=4;pointerEvents=0;" vertex="1" parent="10pmenBXO5PQXSj6-2It-1">
          <mxGeometry x="353.25" y="606" width="142" height="60" as="geometry" />
        </mxCell>
        <mxCell id="upVE6FHKJJWetQOLGkUF-4" style="edgeStyle=none;rounded=0;orthogonalLoop=1;jettySize=auto;html=1;exitX=1;exitY=0.5;exitDx=0;exitDy=0;entryX=0.5;entryY=0;entryDx=0;entryDy=0;shadow=0;endFill=1;startSize=6;endSize=6;sourcePerimeterSpacing=8;targetPerimeterSpacing=8;" edge="1" parent="10pmenBXO5PQXSj6-2It-1" source="upVE6FHKJJWetQOLGkUF-5" target="upVE6FHKJJWetQOLGkUF-3">
          <mxGeometry relative="1" as="geometry">
            <Array as="points">
              <mxPoint x="424" y="555" />
            </Array>
          </mxGeometry>
        </mxCell>
        <mxCell id="Q9X1snmyqKq7CJOndbqU-0" style="edgeStyle=orthogonalEdgeStyle;rounded=0;orthogonalLoop=1;jettySize=auto;html=1;exitX=0;exitY=0.5;exitDx=0;exitDy=0;entryX=0.5;entryY=1;entryDx=0;entryDy=0;endArrow=none;endFill=0;" edge="1" parent="10pmenBXO5PQXSj6-2It-1" source="upVE6FHKJJWetQOLGkUF-5" target="upVE6FHKJJWetQOLGkUF-3">
          <mxGeometry relative="1" as="geometry">
            <Array as="points">
              <mxPoint x="110" y="555" />
              <mxPoint x="110" y="690" />
              <mxPoint x="424" y="690" />
            </Array>
          </mxGeometry>
        </mxCell>
        <mxCell id="upVE6FHKJJWetQOLGkUF-5" value="i == 0 ?" style="rhombus;whiteSpace=wrap;html=1;strokeWidth=1;" vertex="1" parent="10pmenBXO5PQXSj6-2It-1">
          <mxGeometry x="188.25" y="520" width="145.5" height="70" as="geometry" />
        </mxCell>
        <mxCell id="upVE6FHKJJWetQOLGkUF-6" value="Да" style="text;html=1;strokeColor=none;fillColor=none;align=center;verticalAlign=middle;whiteSpace=wrap;rounded=0;hachureGap=4;pointerEvents=0;" vertex="1" parent="10pmenBXO5PQXSj6-2It-1">
          <mxGeometry x="363.25" y="536" width="40" height="20" as="geometry" />
        </mxCell>
        <mxCell id="sJzqD8yGlOu1bynmqGob-1" style="edgeStyle=orthogonalEdgeStyle;rounded=0;orthogonalLoop=1;jettySize=auto;html=1;exitX=0.5;exitY=1;exitDx=0;exitDy=0;exitPerimeter=0;endArrow=none;endFill=0;startArrow=classic;startFill=1;" edge="1" parent="10pmenBXO5PQXSj6-2It-1" source="sJzqD8yGlOu1bynmqGob-0">
          <mxGeometry relative="1" as="geometry">
            <mxPoint x="424" y="750" as="targetPoint" />
          </mxGeometry>
        </mxCell>
        <mxCell id="uFiQ1G28piC-cpMKfO4u-1" style="edgeStyle=orthogonalEdgeStyle;rounded=0;orthogonalLoop=1;jettySize=auto;html=1;exitX=0.5;exitY=0;exitDx=0;exitDy=0;exitPerimeter=0;entryX=0.5;entryY=0;entryDx=0;entryDy=0;startArrow=none;startFill=0;endArrow=classic;endFill=1;" edge="1" parent="10pmenBXO5PQXSj6-2It-1" source="sJzqD8yGlOu1bynmqGob-0" target="uFiQ1G28piC-cpMKfO4u-0">
          <mxGeometry relative="1" as="geometry" />
        </mxCell>
        <mxCell id="sJzqD8yGlOu1bynmqGob-0" value="Цикл main" style="strokeWidth=1;html=1;shape=stencil(rZVNb4MwDIZ/Ta5VIFpXjlPWnapeetg5pe6ICgkKWbv9+6W4aHwMxrxKHPBreB9sbIUJWWWqBBZzowpg4pnF8cbaMggbXWgfwnCbYWLJMbxgmKwwVFUJqUftrJxW+xwwU3lnT3DRB39z0CYDh65izfhTeOZ6CZlaY4KJtqbqZFr5YKa0Ce/yDzTjiwfEfN5ijMpAKMCD66jf5W1RYPELmRTNI+0IpG5FDfc30uvfSRGNtKZ0r8+KZsK2hLr4gsc9XLKayduReAm1OlIvm60jVDfCEzIoYwso5F6lpzdn383hx68s1XW5B4kmXdgztIau16upBjQOuTYth8d/O/QaeAeLJcGC39mBUgblb6S5rWBiaIM+mIhaHRkjIY/WwcR8HXWe4zkyNroDg1rFc60WvgA=);whiteSpace=wrap;rotation=0;direction=west;" vertex="1" parent="10pmenBXO5PQXSj6-2It-1">
          <mxGeometry x="352.75" y="790" width="142.5" height="60" as="geometry" />
        </mxCell>
        <mxCell id="uFiQ1G28piC-cpMKfO4u-0" value="Конец" style="rounded=1;whiteSpace=wrap;html=1;fontSize=12;glass=0;strokeWidth=1;shadow=0;arcSize=50;" vertex="1" parent="10pmenBXO5PQXSj6-2It-1">
          <mxGeometry x="354.5" y="900" width="139" height="60" as="geometry" />
        </mxCell>
      </root>
    </mxGraphModel>
  </diagram>
  <diagram id="KSntgb8I4oo305Y6tRX6" name="selection">
    <mxGraphModel dx="1303" dy="722" grid="1" gridSize="10" guides="1" tooltips="1" connect="1" arrows="1" fold="1" page="1" pageScale="1" pageWidth="827" pageHeight="1169" math="0" shadow="0">
      <root>
        <mxCell id="pPhnO0hhP5PZp-7EW3Pq-0" />
        <mxCell id="pPhnO0hhP5PZp-7EW3Pq-1" parent="pPhnO0hhP5PZp-7EW3Pq-0" />
        <mxCell id="nft4xIjJgXgGH2gs4OPI-0" style="edgeStyle=none;orthogonalLoop=1;jettySize=auto;html=1;exitX=0.5;exitY=1;exitDx=0;exitDy=0;entryX=0.5;entryY=0;entryDx=0;entryDy=0;endArrow=classic;endFill=1;startSize=6;endSize=6;sourcePerimeterSpacing=8;targetPerimeterSpacing=8;shadow=0;rounded=0;" edge="1" parent="pPhnO0hhP5PZp-7EW3Pq-1" source="nft4xIjJgXgGH2gs4OPI-2" target="nft4xIjJgXgGH2gs4OPI-4">
          <mxGeometry relative="1" as="geometry" />
        </mxCell>
        <mxCell id="nft4xIjJgXgGH2gs4OPI-1" style="edgeStyle=none;rounded=0;orthogonalLoop=1;jettySize=auto;html=1;exitX=1;exitY=0.5;exitDx=0;exitDy=0;shadow=0;startArrow=none;startFill=0;endArrow=none;endFill=0;startSize=6;endSize=6;sourcePerimeterSpacing=8;targetPerimeterSpacing=8;dashed=1;" edge="1" parent="pPhnO0hhP5PZp-7EW3Pq-1" source="nft4xIjJgXgGH2gs4OPI-2">
          <mxGeometry relative="1" as="geometry">
            <mxPoint x="540" y="70.33333333333348" as="targetPoint" />
          </mxGeometry>
        </mxCell>
        <mxCell id="nft4xIjJgXgGH2gs4OPI-2" value="Начало" style="rounded=1;whiteSpace=wrap;html=1;fontSize=12;glass=0;strokeWidth=1;shadow=0;arcSize=50;" vertex="1" parent="pPhnO0hhP5PZp-7EW3Pq-1">
          <mxGeometry x="350" y="40" width="139" height="60" as="geometry" />
        </mxCell>
        <mxCell id="nft4xIjJgXgGH2gs4OPI-3" style="edgeStyle=none;rounded=0;orthogonalLoop=1;jettySize=auto;html=1;exitX=0.5;exitY=1;exitDx=0;exitDy=0;entryX=0.5;entryY=0;entryDx=0;entryDy=0;shadow=0;endFill=1;startSize=6;endSize=6;sourcePerimeterSpacing=8;targetPerimeterSpacing=8;entryPerimeter=0;" edge="1" parent="pPhnO0hhP5PZp-7EW3Pq-1" source="nft4xIjJgXgGH2gs4OPI-4" target="nft4xIjJgXgGH2gs4OPI-5">
          <mxGeometry relative="1" as="geometry">
            <mxPoint x="419.4999999999998" y="220" as="targetPoint" />
          </mxGeometry>
        </mxCell>
        <mxCell id="nft4xIjJgXgGH2gs4OPI-4" value="n = length(a)&lt;br&gt;i = 0" style="rounded=0;whiteSpace=wrap;html=1;hachureGap=4;pointerEvents=0;" vertex="1" parent="pPhnO0hhP5PZp-7EW3Pq-1">
          <mxGeometry x="349" y="130" width="141" height="60" as="geometry" />
        </mxCell>
        <mxCell id="nGX_z_sNVE_VnRyX0xw8-4" style="edgeStyle=orthogonalEdgeStyle;rounded=0;orthogonalLoop=1;jettySize=auto;html=1;exitX=0.5;exitY=1;exitDx=0;exitDy=0;exitPerimeter=0;entryX=0.5;entryY=0;entryDx=0;entryDy=0;startArrow=none;startFill=0;endArrow=classic;endFill=1;" edge="1" parent="pPhnO0hhP5PZp-7EW3Pq-1" source="nft4xIjJgXgGH2gs4OPI-5" target="nGX_z_sNVE_VnRyX0xw8-3">
          <mxGeometry relative="1" as="geometry" />
        </mxCell>
        <mxCell id="nft4xIjJgXgGH2gs4OPI-5" value="Цикл main,&lt;br&gt;i == n / 2" style="strokeWidth=1;html=1;shape=stencil(rZVNb4MwDIZ/Ta5VIFpXjlPWnapeetg5pe6ICgkKWbv9+6W4aHwMxrxKHPBreB9sbIUJWWWqBBZzowpg4pnF8cbaMggbXWgfwnCbYWLJMbxgmKwwVFUJqUftrJxW+xwwU3lnT3DRB39z0CYDh65izfhTeOZ6CZlaY4KJtqbqZFr5YKa0Ce/yDzTjiwfEfN5ijMpAKMCD66jf5W1RYPELmRTNI+0IpG5FDfc30uvfSRGNtKZ0r8+KZsK2hLr4gsc9XLKayduReAm1OlIvm60jVDfCEzIoYwso5F6lpzdn383hx68s1XW5B4kmXdgztIau16upBjQOuTYth8d/O/QaeAeLJcGC39mBUgblb6S5rWBiaIM+mIhaHRkjIY/WwcR8HXWe4zkyNroDg1rFc60WvgA=);whiteSpace=wrap;" vertex="1" parent="pPhnO0hhP5PZp-7EW3Pq-1">
          <mxGeometry x="348.5" y="230" width="142" height="60" as="geometry" />
        </mxCell>
        <mxCell id="nft4xIjJgXgGH2gs4OPI-6" value="" style="shape=partialRectangle;whiteSpace=wrap;html=1;bottom=1;right=1;left=1;top=0;fillColor=none;routingCenterX=-0.5;rotation=90;" vertex="1" parent="pPhnO0hhP5PZp-7EW3Pq-1">
          <mxGeometry x="520" y="60" width="65" height="20" as="geometry" />
        </mxCell>
        <mxCell id="nft4xIjJgXgGH2gs4OPI-7" value="def selection_sort(a),&lt;br&gt;где a - массив, который будет отсортирован" style="text;html=1;strokeColor=none;fillColor=none;align=center;verticalAlign=middle;whiteSpace=wrap;rounded=0;hachureGap=4;pointerEvents=0;" vertex="1" parent="pPhnO0hhP5PZp-7EW3Pq-1">
          <mxGeometry x="540" y="60" width="160" height="20" as="geometry" />
        </mxCell>
        <mxCell id="pfgjM5DI8AYzxgO7ifhL-15" style="edgeStyle=orthogonalEdgeStyle;rounded=0;orthogonalLoop=1;jettySize=auto;html=1;exitX=0.5;exitY=0;exitDx=0;exitDy=0;exitPerimeter=0;entryX=0.5;entryY=0;entryDx=0;entryDy=0;startArrow=none;startFill=0;endArrow=classic;endFill=1;" edge="1" parent="pPhnO0hhP5PZp-7EW3Pq-1" source="nGX_z_sNVE_VnRyX0xw8-0" target="pfgjM5DI8AYzxgO7ifhL-14">
          <mxGeometry relative="1" as="geometry" />
        </mxCell>
        <mxCell id="nGX_z_sNVE_VnRyX0xw8-0" value="Цикл j" style="strokeWidth=1;html=1;shape=stencil(rZVNb4MwDIZ/Ta5VIFpXjlPWnapeetg5pe6ICgkKWbv9+6W4aHwMxrxKHPBreB9sbIUJWWWqBBZzowpg4pnF8cbaMggbXWgfwnCbYWLJMbxgmKwwVFUJqUftrJxW+xwwU3lnT3DRB39z0CYDh65izfhTeOZ6CZlaY4KJtqbqZFr5YKa0Ce/yDzTjiwfEfN5ijMpAKMCD66jf5W1RYPELmRTNI+0IpG5FDfc30uvfSRGNtKZ0r8+KZsK2hLr4gsc9XLKayduReAm1OlIvm60jVDfCEzIoYwso5F6lpzdn383hx68s1XW5B4kmXdgztIau16upBjQOuTYth8d/O/QaeAeLJcGC39mBUgblb6S5rWBiaIM+mIhaHRkjIY/WwcR8HXWe4zkyNroDg1rFc60WvgA=);whiteSpace=wrap;rotation=0;direction=west;" vertex="1" parent="pPhnO0hhP5PZp-7EW3Pq-1">
          <mxGeometry x="340" y="1200" width="142.5" height="60" as="geometry" />
        </mxCell>
        <mxCell id="nGX_z_sNVE_VnRyX0xw8-1" style="edgeStyle=none;rounded=0;orthogonalLoop=1;jettySize=auto;html=1;exitX=0.5;exitY=1;exitDx=0;exitDy=0;entryX=0.5;entryY=1;entryDx=0;entryDy=0;entryPerimeter=0;shadow=0;startArrow=none;startFill=0;endArrow=classic;endFill=1;startSize=6;endSize=6;sourcePerimeterSpacing=8;targetPerimeterSpacing=8;" edge="1" parent="pPhnO0hhP5PZp-7EW3Pq-1" source="nGX_z_sNVE_VnRyX0xw8-2" target="nGX_z_sNVE_VnRyX0xw8-0">
          <mxGeometry relative="1" as="geometry" />
        </mxCell>
        <mxCell id="nGX_z_sNVE_VnRyX0xw8-2" value="Инкрементировать j" style="rounded=0;whiteSpace=wrap;html=1;hachureGap=4;pointerEvents=0;" vertex="1" parent="pPhnO0hhP5PZp-7EW3Pq-1">
          <mxGeometry x="340.5" y="1100" width="142" height="60" as="geometry" />
        </mxCell>
        <mxCell id="nGX_z_sNVE_VnRyX0xw8-10" style="edgeStyle=orthogonalEdgeStyle;rounded=0;orthogonalLoop=1;jettySize=auto;html=1;exitX=0.5;exitY=1;exitDx=0;exitDy=0;entryX=0.5;entryY=0;entryDx=0;entryDy=0;entryPerimeter=0;startArrow=none;startFill=0;endArrow=classic;endFill=1;" edge="1" parent="pPhnO0hhP5PZp-7EW3Pq-1" source="nGX_z_sNVE_VnRyX0xw8-3" target="nGX_z_sNVE_VnRyX0xw8-8">
          <mxGeometry relative="1" as="geometry" />
        </mxCell>
        <mxCell id="nGX_z_sNVE_VnRyX0xw8-3" value="max_ind = i&lt;br&gt;min_ind = i&lt;br&gt;j = i" style="rounded=0;whiteSpace=wrap;html=1;hachureGap=4;pointerEvents=0;" vertex="1" parent="pPhnO0hhP5PZp-7EW3Pq-1">
          <mxGeometry x="349" y="330" width="141" height="60" as="geometry" />
        </mxCell>
        <mxCell id="pfgjM5DI8AYzxgO7ifhL-5" style="edgeStyle=orthogonalEdgeStyle;rounded=0;orthogonalLoop=1;jettySize=auto;html=1;exitX=0.5;exitY=1;exitDx=0;exitDy=0;exitPerimeter=0;entryX=0.5;entryY=0;entryDx=0;entryDy=0;startArrow=none;startFill=0;endArrow=classic;endFill=1;" edge="1" parent="pPhnO0hhP5PZp-7EW3Pq-1" source="nGX_z_sNVE_VnRyX0xw8-8" target="pfgjM5DI8AYzxgO7ifhL-3">
          <mxGeometry relative="1" as="geometry" />
        </mxCell>
        <mxCell id="nGX_z_sNVE_VnRyX0xw8-8" value="Цикл j,&lt;br&gt;j == n - i&amp;nbsp;" style="strokeWidth=1;html=1;shape=stencil(rZVNb4MwDIZ/Ta5VIFpXjlPWnapeetg5pe6ICgkKWbv9+6W4aHwMxrxKHPBreB9sbIUJWWWqBBZzowpg4pnF8cbaMggbXWgfwnCbYWLJMbxgmKwwVFUJqUftrJxW+xwwU3lnT3DRB39z0CYDh65izfhTeOZ6CZlaY4KJtqbqZFr5YKa0Ce/yDzTjiwfEfN5ijMpAKMCD66jf5W1RYPELmRTNI+0IpG5FDfc30uvfSRGNtKZ0r8+KZsK2hLr4gsc9XLKayduReAm1OlIvm60jVDfCEzIoYwso5F6lpzdn383hx68s1XW5B4kmXdgztIau16upBjQOuTYth8d/O/QaeAeLJcGC39mBUgblb6S5rWBiaIM+mIhaHRkjIY/WwcR8HXWe4zkyNroDg1rFc60WvgA=);whiteSpace=wrap;" vertex="1" parent="pPhnO0hhP5PZp-7EW3Pq-1">
          <mxGeometry x="348" y="440" width="142" height="60" as="geometry" />
        </mxCell>
        <mxCell id="pfgjM5DI8AYzxgO7ifhL-0" value="max_ind = j" style="rounded=0;whiteSpace=wrap;html=1;hachureGap=4;pointerEvents=0;" vertex="1" parent="pPhnO0hhP5PZp-7EW3Pq-1">
          <mxGeometry x="513.25" y="620" width="142" height="60" as="geometry" />
        </mxCell>
        <mxCell id="pfgjM5DI8AYzxgO7ifhL-1" style="edgeStyle=none;rounded=0;orthogonalLoop=1;jettySize=auto;html=1;exitX=1;exitY=0.5;exitDx=0;exitDy=0;entryX=0.5;entryY=0;entryDx=0;entryDy=0;shadow=0;endFill=1;startSize=6;endSize=6;sourcePerimeterSpacing=8;targetPerimeterSpacing=8;" edge="1" parent="pPhnO0hhP5PZp-7EW3Pq-1" source="pfgjM5DI8AYzxgO7ifhL-3" target="pfgjM5DI8AYzxgO7ifhL-0">
          <mxGeometry relative="1" as="geometry">
            <Array as="points">
              <mxPoint x="584" y="575" />
            </Array>
          </mxGeometry>
        </mxCell>
        <mxCell id="pfgjM5DI8AYzxgO7ifhL-2" style="edgeStyle=orthogonalEdgeStyle;rounded=0;orthogonalLoop=1;jettySize=auto;html=1;exitX=0;exitY=0.5;exitDx=0;exitDy=0;entryX=0.5;entryY=1;entryDx=0;entryDy=0;endArrow=none;endFill=0;" edge="1" parent="pPhnO0hhP5PZp-7EW3Pq-1" source="pfgjM5DI8AYzxgO7ifhL-3" target="pfgjM5DI8AYzxgO7ifhL-0">
          <mxGeometry relative="1" as="geometry">
            <Array as="points">
              <mxPoint x="260" y="575" />
              <mxPoint x="260" y="710" />
              <mxPoint x="584" y="710" />
            </Array>
          </mxGeometry>
        </mxCell>
        <mxCell id="pfgjM5DI8AYzxgO7ifhL-3" value="a[j] &amp;gt; a[max_ind] ?" style="rhombus;whiteSpace=wrap;html=1;strokeWidth=1;" vertex="1" parent="pPhnO0hhP5PZp-7EW3Pq-1">
          <mxGeometry x="346.25" y="540" width="145.5" height="70" as="geometry" />
        </mxCell>
        <mxCell id="pfgjM5DI8AYzxgO7ifhL-4" value="Да" style="text;html=1;strokeColor=none;fillColor=none;align=center;verticalAlign=middle;whiteSpace=wrap;rounded=0;hachureGap=4;pointerEvents=0;" vertex="1" parent="pPhnO0hhP5PZp-7EW3Pq-1">
          <mxGeometry x="523.25" y="556" width="40" height="20" as="geometry" />
        </mxCell>
        <mxCell id="pfgjM5DI8AYzxgO7ifhL-6" style="edgeStyle=orthogonalEdgeStyle;rounded=0;orthogonalLoop=1;jettySize=auto;html=1;exitX=0.5;exitY=1;exitDx=0;exitDy=0;exitPerimeter=0;entryX=0.5;entryY=0;entryDx=0;entryDy=0;startArrow=none;startFill=0;endArrow=classic;endFill=1;" edge="1" parent="pPhnO0hhP5PZp-7EW3Pq-1" target="pfgjM5DI8AYzxgO7ifhL-10">
          <mxGeometry relative="1" as="geometry">
            <mxPoint x="419" y="710" as="sourcePoint" />
          </mxGeometry>
        </mxCell>
        <mxCell id="pfgjM5DI8AYzxgO7ifhL-7" value="min_ind = j" style="rounded=0;whiteSpace=wrap;html=1;hachureGap=4;pointerEvents=0;" vertex="1" parent="pPhnO0hhP5PZp-7EW3Pq-1">
          <mxGeometry x="513.25" y="830" width="142" height="60" as="geometry" />
        </mxCell>
        <mxCell id="pfgjM5DI8AYzxgO7ifhL-8" style="edgeStyle=none;rounded=0;orthogonalLoop=1;jettySize=auto;html=1;exitX=1;exitY=0.5;exitDx=0;exitDy=0;entryX=0.5;entryY=0;entryDx=0;entryDy=0;shadow=0;endFill=1;startSize=6;endSize=6;sourcePerimeterSpacing=8;targetPerimeterSpacing=8;" edge="1" parent="pPhnO0hhP5PZp-7EW3Pq-1" source="pfgjM5DI8AYzxgO7ifhL-10" target="pfgjM5DI8AYzxgO7ifhL-7">
          <mxGeometry relative="1" as="geometry">
            <Array as="points">
              <mxPoint x="584" y="785" />
            </Array>
          </mxGeometry>
        </mxCell>
        <mxCell id="pfgjM5DI8AYzxgO7ifhL-9" style="edgeStyle=orthogonalEdgeStyle;rounded=0;orthogonalLoop=1;jettySize=auto;html=1;exitX=0;exitY=0.5;exitDx=0;exitDy=0;entryX=0.5;entryY=1;entryDx=0;entryDy=0;endArrow=none;endFill=0;" edge="1" parent="pPhnO0hhP5PZp-7EW3Pq-1" source="pfgjM5DI8AYzxgO7ifhL-10" target="pfgjM5DI8AYzxgO7ifhL-7">
          <mxGeometry relative="1" as="geometry">
            <Array as="points">
              <mxPoint x="260" y="785" />
              <mxPoint x="260" y="920" />
              <mxPoint x="584" y="920" />
            </Array>
          </mxGeometry>
        </mxCell>
        <mxCell id="pfgjM5DI8AYzxgO7ifhL-10" value="a[j] &amp;lt; a[min_ind] ?" style="rhombus;whiteSpace=wrap;html=1;strokeWidth=1;" vertex="1" parent="pPhnO0hhP5PZp-7EW3Pq-1">
          <mxGeometry x="346.25" y="750" width="145.5" height="70" as="geometry" />
        </mxCell>
        <mxCell id="pfgjM5DI8AYzxgO7ifhL-11" value="Да" style="text;html=1;strokeColor=none;fillColor=none;align=center;verticalAlign=middle;whiteSpace=wrap;rounded=0;hachureGap=4;pointerEvents=0;" vertex="1" parent="pPhnO0hhP5PZp-7EW3Pq-1">
          <mxGeometry x="523.25" y="766" width="40" height="20" as="geometry" />
        </mxCell>
        <mxCell id="pfgjM5DI8AYzxgO7ifhL-21" style="edgeStyle=orthogonalEdgeStyle;rounded=0;orthogonalLoop=1;jettySize=auto;html=1;exitX=0.5;exitY=1;exitDx=0;exitDy=0;entryX=0.5;entryY=0;entryDx=0;entryDy=0;startArrow=none;startFill=0;endArrow=classic;endFill=1;" edge="1" parent="pPhnO0hhP5PZp-7EW3Pq-1" source="pfgjM5DI8AYzxgO7ifhL-14" target="pfgjM5DI8AYzxgO7ifhL-19">
          <mxGeometry relative="1" as="geometry" />
        </mxCell>
        <mxCell id="pfgjM5DI8AYzxgO7ifhL-14" value="a[max_ind], a[n - i - 1] =&amp;nbsp;&lt;br&gt;a[n - i - 1] = a[max_ind]&lt;br&gt;" style="rounded=0;whiteSpace=wrap;html=1;hachureGap=4;pointerEvents=0;" vertex="1" parent="pPhnO0hhP5PZp-7EW3Pq-1">
          <mxGeometry x="341.5" y="1300" width="141" height="60" as="geometry" />
        </mxCell>
        <mxCell id="pfgjM5DI8AYzxgO7ifhL-16" value="min_ind = max_ind" style="rounded=0;whiteSpace=wrap;html=1;hachureGap=4;pointerEvents=0;" vertex="1" parent="pPhnO0hhP5PZp-7EW3Pq-1">
          <mxGeometry x="503.25" y="1470" width="142" height="60" as="geometry" />
        </mxCell>
        <mxCell id="pfgjM5DI8AYzxgO7ifhL-17" style="edgeStyle=none;rounded=0;orthogonalLoop=1;jettySize=auto;html=1;exitX=1;exitY=0.5;exitDx=0;exitDy=0;entryX=0.5;entryY=0;entryDx=0;entryDy=0;shadow=0;endFill=1;startSize=6;endSize=6;sourcePerimeterSpacing=8;targetPerimeterSpacing=8;" edge="1" parent="pPhnO0hhP5PZp-7EW3Pq-1" source="pfgjM5DI8AYzxgO7ifhL-19" target="pfgjM5DI8AYzxgO7ifhL-16">
          <mxGeometry relative="1" as="geometry">
            <Array as="points">
              <mxPoint x="574" y="1425" />
            </Array>
          </mxGeometry>
        </mxCell>
        <mxCell id="pfgjM5DI8AYzxgO7ifhL-18" style="edgeStyle=orthogonalEdgeStyle;rounded=0;orthogonalLoop=1;jettySize=auto;html=1;exitX=0;exitY=0.5;exitDx=0;exitDy=0;entryX=0.5;entryY=1;entryDx=0;entryDy=0;endArrow=none;endFill=0;" edge="1" parent="pPhnO0hhP5PZp-7EW3Pq-1" source="pfgjM5DI8AYzxgO7ifhL-19" target="pfgjM5DI8AYzxgO7ifhL-16">
          <mxGeometry relative="1" as="geometry">
            <Array as="points">
              <mxPoint x="260" y="1425" />
              <mxPoint x="260" y="1560" />
              <mxPoint x="574" y="1560" />
            </Array>
          </mxGeometry>
        </mxCell>
        <mxCell id="pfgjM5DI8AYzxgO7ifhL-19" value="min_ind == n - i - 1 ?" style="rhombus;whiteSpace=wrap;html=1;strokeWidth=1;" vertex="1" parent="pPhnO0hhP5PZp-7EW3Pq-1">
          <mxGeometry x="340" y="1390" width="145.5" height="70" as="geometry" />
        </mxCell>
        <mxCell id="pfgjM5DI8AYzxgO7ifhL-20" value="Да" style="text;html=1;strokeColor=none;fillColor=none;align=center;verticalAlign=middle;whiteSpace=wrap;rounded=0;hachureGap=4;pointerEvents=0;" vertex="1" parent="pPhnO0hhP5PZp-7EW3Pq-1">
          <mxGeometry x="513.25" y="1406" width="40" height="20" as="geometry" />
        </mxCell>
        <mxCell id="Ln7dhH16H65Ac5C906sO-6" style="edgeStyle=orthogonalEdgeStyle;rounded=0;orthogonalLoop=1;jettySize=auto;html=1;exitX=0.5;exitY=1;exitDx=0;exitDy=0;entryX=0.5;entryY=0;entryDx=0;entryDy=0;startArrow=none;startFill=0;endArrow=classic;endFill=1;" edge="1" parent="pPhnO0hhP5PZp-7EW3Pq-1" source="Ln7dhH16H65Ac5C906sO-0" target="Ln7dhH16H65Ac5C906sO-4">
          <mxGeometry relative="1" as="geometry" />
        </mxCell>
        <mxCell id="Ln7dhH16H65Ac5C906sO-0" value="a[min_ind], a[i] =&amp;nbsp;&lt;br&gt;a[i] = a[min_ind]" style="rounded=0;whiteSpace=wrap;html=1;hachureGap=4;pointerEvents=0;" vertex="1" parent="pPhnO0hhP5PZp-7EW3Pq-1">
          <mxGeometry x="344.5" y="1590" width="141" height="60" as="geometry" />
        </mxCell>
        <mxCell id="Ln7dhH16H65Ac5C906sO-1" value="" style="endArrow=classic;html=1;entryX=0.5;entryY=0;entryDx=0;entryDy=0;" edge="1" parent="pPhnO0hhP5PZp-7EW3Pq-1" target="Ln7dhH16H65Ac5C906sO-0">
          <mxGeometry width="50" height="50" relative="1" as="geometry">
            <mxPoint x="415" y="1560" as="sourcePoint" />
            <mxPoint x="470" y="1590" as="targetPoint" />
          </mxGeometry>
        </mxCell>
        <mxCell id="7_Nti5Wi1oI_7bwkZYAF-1" style="edgeStyle=orthogonalEdgeStyle;rounded=0;orthogonalLoop=1;jettySize=auto;html=1;exitX=0.5;exitY=0;exitDx=0;exitDy=0;exitPerimeter=0;entryX=0.5;entryY=0;entryDx=0;entryDy=0;startArrow=none;startFill=0;endArrow=classic;endFill=1;" edge="1" parent="pPhnO0hhP5PZp-7EW3Pq-1" source="Ln7dhH16H65Ac5C906sO-2" target="7_Nti5Wi1oI_7bwkZYAF-0">
          <mxGeometry relative="1" as="geometry" />
        </mxCell>
        <mxCell id="Ln7dhH16H65Ac5C906sO-2" value="Цикл main" style="strokeWidth=1;html=1;shape=stencil(rZVNb4MwDIZ/Ta5VIFpXjlPWnapeetg5pe6ICgkKWbv9+6W4aHwMxrxKHPBreB9sbIUJWWWqBBZzowpg4pnF8cbaMggbXWgfwnCbYWLJMbxgmKwwVFUJqUftrJxW+xwwU3lnT3DRB39z0CYDh65izfhTeOZ6CZlaY4KJtqbqZFr5YKa0Ce/yDzTjiwfEfN5ijMpAKMCD66jf5W1RYPELmRTNI+0IpG5FDfc30uvfSRGNtKZ0r8+KZsK2hLr4gsc9XLKayduReAm1OlIvm60jVDfCEzIoYwso5F6lpzdn383hx68s1XW5B4kmXdgztIau16upBjQOuTYth8d/O/QaeAeLJcGC39mBUgblb6S5rWBiaIM+mIhaHRkjIY/WwcR8HXWe4zkyNroDg1rFc60WvgA=);whiteSpace=wrap;rotation=0;direction=west;" vertex="1" parent="pPhnO0hhP5PZp-7EW3Pq-1">
          <mxGeometry x="344.5" y="1790" width="142.5" height="60" as="geometry" />
        </mxCell>
        <mxCell id="Ln7dhH16H65Ac5C906sO-3" style="edgeStyle=none;rounded=0;orthogonalLoop=1;jettySize=auto;html=1;exitX=0.5;exitY=1;exitDx=0;exitDy=0;entryX=0.5;entryY=1;entryDx=0;entryDy=0;entryPerimeter=0;shadow=0;startArrow=none;startFill=0;endArrow=classic;endFill=1;startSize=6;endSize=6;sourcePerimeterSpacing=8;targetPerimeterSpacing=8;" edge="1" parent="pPhnO0hhP5PZp-7EW3Pq-1" source="Ln7dhH16H65Ac5C906sO-4" target="Ln7dhH16H65Ac5C906sO-2">
          <mxGeometry relative="1" as="geometry" />
        </mxCell>
        <mxCell id="Ln7dhH16H65Ac5C906sO-4" value="Инкрементировать i" style="rounded=0;whiteSpace=wrap;html=1;hachureGap=4;pointerEvents=0;" vertex="1" parent="pPhnO0hhP5PZp-7EW3Pq-1">
          <mxGeometry x="344.25" y="1690" width="142" height="60" as="geometry" />
        </mxCell>
        <mxCell id="7_Nti5Wi1oI_7bwkZYAF-0" value="Конец" style="rounded=1;whiteSpace=wrap;html=1;fontSize=12;glass=0;strokeWidth=1;shadow=0;arcSize=50;" vertex="1" parent="pPhnO0hhP5PZp-7EW3Pq-1">
          <mxGeometry x="347.25" y="1880" width="139" height="60" as="geometry" />
        </mxCell>
        <mxCell id="sfRBab_pogY4D8MSnkg8-0" value="A" style="ellipse;whiteSpace=wrap;html=1;" vertex="1" parent="pPhnO0hhP5PZp-7EW3Pq-1">
          <mxGeometry x="399.5" y="950" width="40" height="40" as="geometry" />
        </mxCell>
        <mxCell id="sfRBab_pogY4D8MSnkg8-1" value="" style="endArrow=classic;html=1;" edge="1" parent="pPhnO0hhP5PZp-7EW3Pq-1" target="sfRBab_pogY4D8MSnkg8-0">
          <mxGeometry width="50" height="50" relative="1" as="geometry">
            <mxPoint x="420" y="920" as="sourcePoint" />
            <mxPoint x="450" y="960" as="targetPoint" />
          </mxGeometry>
        </mxCell>
        <mxCell id="sfRBab_pogY4D8MSnkg8-3" style="edgeStyle=orthogonalEdgeStyle;rounded=0;orthogonalLoop=1;jettySize=auto;html=1;exitX=0.5;exitY=1;exitDx=0;exitDy=0;entryX=0.5;entryY=0;entryDx=0;entryDy=0;startArrow=none;startFill=0;endArrow=classic;endFill=1;" edge="1" parent="pPhnO0hhP5PZp-7EW3Pq-1" source="sfRBab_pogY4D8MSnkg8-2" target="nGX_z_sNVE_VnRyX0xw8-2">
          <mxGeometry relative="1" as="geometry" />
        </mxCell>
        <mxCell id="sfRBab_pogY4D8MSnkg8-2" value="A" style="ellipse;whiteSpace=wrap;html=1;" vertex="1" parent="pPhnO0hhP5PZp-7EW3Pq-1">
          <mxGeometry x="390" y="1030" width="40" height="40" as="geometry" />
        </mxCell>
      </root>
    </mxGraphModel>
  </diagram>
</mxfile>
